<svg id="visual" viewBox="0 0 900 600" width="900" height="600" xmlns="http://www.w3.org/2000/svg" xmlns:xlink="http://www.w3.org/1999/xlink" version="1.1"><g stroke-width="2" stroke-linejoin="bevel"><path d="M435 275.1L421 192.4L370 242.1Z" fill="#303630" stroke="#f3fcf3"></path><path d="M421 192.4L352 204.4L370 242.1Z" fill="#454b45" stroke="#f3fcf3"></path><path d="M435 275.1L524 261.1L421 192.4Z" fill="#8b938b" stroke="#f3fcf3"></path><path d="M359 116.7L300 180.4L352 204.4Z" fill="#737a73" stroke="#f3fcf3"></path><path d="M352 204.4L249 271.1L370 242.1Z" fill="#737a73" stroke="#f3fcf3"></path><path d="M440 98.7L359 116.7L421 192.4Z" fill="#454b45" stroke="#f3fcf3"></path><path d="M421 192.4L359 116.7L352 204.4Z" fill="#f3fcf3" stroke="#f3fcf3"></path><path d="M249 271.1L328 344.9L370 242.1Z" fill="#a4aca4" stroke="#f3fcf3"></path><path d="M370 242.1L328 344.9L435 275.1Z" fill="#f3fcf3" stroke="#f3fcf3"></path><path d="M435 275.1L480 363.9L524 261.1Z" fill="#8b938b" stroke="#f3fcf3"></path><path d="M549 154.4L440 98.7L421 192.4Z" fill="#1c211c" stroke="#f3fcf3"></path><path d="M328 344.9L480 363.9L435 275.1Z" fill="#737a73" stroke="#f3fcf3"></path><path d="M524 261.1L549 154.4L421 192.4Z" fill="#8b938b" stroke="#f3fcf3"></path><path d="M300 180.4L249 271.1L352 204.4Z" fill="#737a73" stroke="#f3fcf3"></path><path d="M272 455.6L393 425.6L328 344.9Z" fill="#8b938b" stroke="#f3fcf3"></path><path d="M328 344.9L393 425.6L480 363.9Z" fill="#8b938b" stroke="#f3fcf3"></path><path d="M524 261.1L604 198.4L549 154.4Z" fill="#a4aca4" stroke="#f3fcf3"></path><path d="M628 239.1L604 198.4L524 261.1Z" fill="#f3fcf3" stroke="#f3fcf3"></path><path d="M478 424.6L546 379.9L480 363.9Z" fill="#f3fcf3" stroke="#f3fcf3"></path><path d="M480 363.9L546 379.9L524 261.1Z" fill="#d8e1d8" stroke="#f3fcf3"></path><path d="M393 425.6L478 424.6L480 363.9Z" fill="#737a73" stroke="#f3fcf3"></path><path d="M346 0L255 110.7L359 116.7Z" fill="#bec6be" stroke="#f3fcf3"></path><path d="M359 116.7L255 110.7L300 180.4Z" fill="#8b938b" stroke="#f3fcf3"></path><path d="M300 180.4L195 259.1L249 271.1Z" fill="#5c625c" stroke="#f3fcf3"></path><path d="M656 77.7L524 59.7L549 154.4Z" fill="#737a73" stroke="#f3fcf3"></path><path d="M549 154.4L524 59.7L440 98.7Z" fill="#454b45" stroke="#f3fcf3"></path><path d="M440 98.7L346 0L359 116.7Z" fill="#737a73" stroke="#f3fcf3"></path><path d="M214 353.9L243 360.9L249 271.1Z" fill="#bec6be" stroke="#f3fcf3"></path><path d="M249 271.1L243 360.9L328 344.9Z" fill="#a4aca4" stroke="#f3fcf3"></path><path d="M650 361.9L628 239.1L524 261.1Z" fill="#737a73" stroke="#f3fcf3"></path><path d="M611 0L523 0L524 59.7Z" fill="#a4aca4" stroke="#f3fcf3"></path><path d="M152 171.4L195 259.1L300 180.4Z" fill="#737a73" stroke="#f3fcf3"></path><path d="M195 259.1L214 353.9L249 271.1Z" fill="#1c211c" stroke="#f3fcf3"></path><path d="M322 528.3L468 489.3L393 425.6Z" fill="#a4aca4" stroke="#f3fcf3"></path><path d="M524 59.7L453 0L440 98.7Z" fill="#5c625c" stroke="#f3fcf3"></path><path d="M453 0L346 0L440 98.7Z" fill="#bec6be" stroke="#f3fcf3"></path><path d="M478 424.6L577 433.6L546 379.9Z" fill="#f3fcf3" stroke="#f3fcf3"></path><path d="M546 379.9L650 361.9L524 261.1Z" fill="#5c625c" stroke="#f3fcf3"></path><path d="M468 489.3L577 433.6L478 424.6Z" fill="#454b45" stroke="#f3fcf3"></path><path d="M272 455.6L328 344.9L243 360.9Z" fill="#8b938b" stroke="#f3fcf3"></path><path d="M393 425.6L468 489.3L478 424.6Z" fill="#a4aca4" stroke="#f3fcf3"></path><path d="M656 77.7L549 154.4L604 198.4Z" fill="#f3fcf3" stroke="#f3fcf3"></path><path d="M524 59.7L523 0L453 0Z" fill="#303630" stroke="#f3fcf3"></path><path d="M205 444.6L272 455.6L243 360.9Z" fill="#454b45" stroke="#f3fcf3"></path><path d="M602 438.6L650 361.9L546 379.9Z" fill="#d8e1d8" stroke="#f3fcf3"></path><path d="M192 59.7L152 171.4L255 110.7Z" fill="#737a73" stroke="#f3fcf3"></path><path d="M255 110.7L152 171.4L300 180.4Z" fill="#bec6be" stroke="#f3fcf3"></path><path d="M108 397.6L205 444.6L214 353.9Z" fill="#bec6be" stroke="#f3fcf3"></path><path d="M636 499.3L602 438.6L577 433.6Z" fill="#303630" stroke="#f3fcf3"></path><path d="M577 433.6L602 438.6L546 379.9Z" fill="#030c03" stroke="#f3fcf3"></path><path d="M346 0L266 0L255 110.7Z" fill="#a4aca4" stroke="#f3fcf3"></path><path d="M266 0L192 59.7L255 110.7Z" fill="#1c211c" stroke="#f3fcf3"></path><path d="M690 90.7L604 198.4L757 197.4Z" fill="#1c211c" stroke="#f3fcf3"></path><path d="M690 90.7L656 77.7L604 198.4Z" fill="#030c03" stroke="#f3fcf3"></path><path d="M214 353.9L205 444.6L243 360.9Z" fill="#bec6be" stroke="#f3fcf3"></path><path d="M272 455.6L322 528.3L393 425.6Z" fill="#d8e1d8" stroke="#f3fcf3"></path><path d="M94 288.1L214 353.9L195 259.1Z" fill="#5c625c" stroke="#f3fcf3"></path><path d="M264 509.3L322 528.3L272 455.6Z" fill="#f3fcf3" stroke="#f3fcf3"></path><path d="M266 0L217 0L192 59.7Z" fill="#1c211c" stroke="#f3fcf3"></path><path d="M656 77.7L611 0L524 59.7Z" fill="#303630" stroke="#f3fcf3"></path><path d="M205 444.6L264 509.3L272 455.6Z" fill="#1c211c" stroke="#f3fcf3"></path><path d="M757 197.4L604 198.4L628 239.1Z" fill="#8b938b" stroke="#f3fcf3"></path><path d="M656 77.7L743 0L611 0Z" fill="#1c211c" stroke="#f3fcf3"></path><path d="M709 351.9L628 239.1L650 361.9Z" fill="#5c625c" stroke="#f3fcf3"></path><path d="M709 351.9L730 243.1L628 239.1Z" fill="#303630" stroke="#f3fcf3"></path><path d="M708 462.6L709 351.9L650 361.9Z" fill="#d8e1d8" stroke="#f3fcf3"></path><path d="M88 154.4L94 288.1L152 171.4Z" fill="#303630" stroke="#f3fcf3"></path><path d="M152 171.4L94 288.1L195 259.1Z" fill="#303630" stroke="#f3fcf3"></path><path d="M88 154.4L152 171.4L83 83.7Z" fill="#454b45" stroke="#f3fcf3"></path><path d="M83 83.7L152 171.4L192 59.7Z" fill="#d8e1d8" stroke="#f3fcf3"></path><path d="M94 288.1L107 377.9L214 353.9Z" fill="#5c625c" stroke="#f3fcf3"></path><path d="M205 444.6L207 548.3L264 509.3Z" fill="#5c625c" stroke="#f3fcf3"></path><path d="M468 489.3L552 547.3L577 433.6Z" fill="#bec6be" stroke="#f3fcf3"></path><path d="M602 438.6L708 462.6L650 361.9Z" fill="#303630" stroke="#f3fcf3"></path><path d="M482 600L552 547.3L468 489.3Z" fill="#303630" stroke="#f3fcf3"></path><path d="M552 547.3L636 499.3L577 433.6Z" fill="#303630" stroke="#f3fcf3"></path><path d="M730 243.1L757 197.4L628 239.1Z" fill="#030c03" stroke="#f3fcf3"></path><path d="M838 265.1L757 197.4L730 243.1Z" fill="#f3fcf3" stroke="#f3fcf3"></path><path d="M0 344.9L108 397.6L107 377.9Z" fill="#f3fcf3" stroke="#f3fcf3"></path><path d="M107 377.9L108 397.6L214 353.9Z" fill="#303630" stroke="#f3fcf3"></path><path d="M103 0L83 83.7L192 59.7Z" fill="#5c625c" stroke="#f3fcf3"></path><path d="M0 165.4L0 285.1L94 288.1Z" fill="#1c211c" stroke="#f3fcf3"></path><path d="M268 600L369 600L322 528.3Z" fill="#a4aca4" stroke="#f3fcf3"></path><path d="M322 528.3L369 600L468 489.3Z" fill="#d8e1d8" stroke="#f3fcf3"></path><path d="M268 600L322 528.3L264 509.3Z" fill="#5c625c" stroke="#f3fcf3"></path><path d="M369 600L482 600L468 489.3Z" fill="#8b938b" stroke="#f3fcf3"></path><path d="M552 547.3L662 600L636 499.3Z" fill="#bec6be" stroke="#f3fcf3"></path><path d="M731 491.3L708 462.6L636 499.3Z" fill="#bec6be" stroke="#f3fcf3"></path><path d="M636 499.3L708 462.6L602 438.6Z" fill="#454b45" stroke="#f3fcf3"></path><path d="M709 351.9L819 306.9L730 243.1Z" fill="#8b938b" stroke="#f3fcf3"></path><path d="M92 532.3L207 548.3L205 444.6Z" fill="#737a73" stroke="#f3fcf3"></path><path d="M900 188.4L781 138.4L757 197.4Z" fill="#f3fcf3" stroke="#f3fcf3"></path><path d="M757 197.4L781 138.4L690 90.7Z" fill="#030c03" stroke="#f3fcf3"></path><path d="M690 90.7L743 0L656 77.7Z" fill="#737a73" stroke="#f3fcf3"></path><path d="M482 600L538 600L552 547.3Z" fill="#f3fcf3" stroke="#f3fcf3"></path><path d="M217 0L103 0L192 59.7Z" fill="#737a73" stroke="#f3fcf3"></path><path d="M207 548.3L268 600L264 509.3Z" fill="#f3fcf3" stroke="#f3fcf3"></path><path d="M781 138.4L743 0L690 90.7Z" fill="#303630" stroke="#f3fcf3"></path><path d="M662 600L731 491.3L636 499.3Z" fill="#737a73" stroke="#f3fcf3"></path><path d="M826 416.6L819 306.9L709 351.9Z" fill="#d8e1d8" stroke="#f3fcf3"></path><path d="M826 416.6L709 351.9L708 462.6Z" fill="#f3fcf3" stroke="#f3fcf3"></path><path d="M94 288.1L0 344.9L107 377.9Z" fill="#d8e1d8" stroke="#f3fcf3"></path><path d="M92 532.3L183 600L207 548.3Z" fill="#737a73" stroke="#f3fcf3"></path><path d="M0 165.4L94 288.1L88 154.4Z" fill="#1c211c" stroke="#f3fcf3"></path><path d="M0 165.4L88 154.4L0 117.7Z" fill="#d8e1d8" stroke="#f3fcf3"></path><path d="M0 117.7L88 154.4L83 83.7Z" fill="#a4aca4" stroke="#f3fcf3"></path><path d="M819 306.9L838 265.1L730 243.1Z" fill="#5c625c" stroke="#f3fcf3"></path><path d="M781 138.4L783 0L743 0Z" fill="#bec6be" stroke="#f3fcf3"></path><path d="M0 285.1L0 344.9L94 288.1Z" fill="#454b45" stroke="#f3fcf3"></path><path d="M0 0L0 117.7L83 83.7Z" fill="#1c211c" stroke="#f3fcf3"></path><path d="M92 532.3L205 444.6L108 397.6Z" fill="#5c625c" stroke="#f3fcf3"></path><path d="M207 548.3L183 600L268 600Z" fill="#030c03" stroke="#f3fcf3"></path><path d="M0 453.6L92 532.3L108 397.6Z" fill="#1c211c" stroke="#f3fcf3"></path><path d="M843 66.7L783 0L781 138.4Z" fill="#d8e1d8" stroke="#f3fcf3"></path><path d="M538 600L662 600L552 547.3Z" fill="#1c211c" stroke="#f3fcf3"></path><path d="M733 600L779 490.3L731 491.3Z" fill="#a4aca4" stroke="#f3fcf3"></path><path d="M731 491.3L779 490.3L708 462.6Z" fill="#030c03" stroke="#f3fcf3"></path><path d="M900 359.9L900 237.1L838 265.1Z" fill="#d8e1d8" stroke="#f3fcf3"></path><path d="M779 490.3L826 416.6L708 462.6Z" fill="#454b45" stroke="#f3fcf3"></path><path d="M900 90.7L843 66.7L781 138.4Z" fill="#737a73" stroke="#f3fcf3"></path><path d="M0 344.9L0 453.6L108 397.6Z" fill="#8b938b" stroke="#f3fcf3"></path><path d="M103 0L0 0L83 83.7Z" fill="#737a73" stroke="#f3fcf3"></path><path d="M0 600L106 600L92 532.3Z" fill="#a4aca4" stroke="#f3fcf3"></path><path d="M92 532.3L106 600L183 600Z" fill="#d8e1d8" stroke="#f3fcf3"></path><path d="M662 600L733 600L731 491.3Z" fill="#bec6be" stroke="#f3fcf3"></path><path d="M900 403.6L900 359.9L826 416.6Z" fill="#f3fcf3" stroke="#f3fcf3"></path><path d="M900 359.9L838 265.1L819 306.9Z" fill="#d8e1d8" stroke="#f3fcf3"></path><path d="M838 265.1L900 188.4L757 197.4Z" fill="#1c211c" stroke="#f3fcf3"></path><path d="M0 453.6L0 493.3L92 532.3Z" fill="#5c625c" stroke="#f3fcf3"></path><path d="M900 237.1L900 188.4L838 265.1Z" fill="#8b938b" stroke="#f3fcf3"></path><path d="M826 416.6L900 359.9L819 306.9Z" fill="#a4aca4" stroke="#f3fcf3"></path><path d="M900 403.6L826 416.6L900 548.3Z" fill="#5c625c" stroke="#f3fcf3"></path><path d="M900 188.4L900 90.7L781 138.4Z" fill="#8b938b" stroke="#f3fcf3"></path><path d="M843 66.7L900 0L783 0Z" fill="#8b938b" stroke="#f3fcf3"></path><path d="M900 548.3L826 416.6L779 490.3Z" fill="#454b45" stroke="#f3fcf3"></path><path d="M733 600L812 600L779 490.3Z" fill="#a4aca4" stroke="#f3fcf3"></path><path d="M900 90.7L900 0L843 66.7Z" fill="#bec6be" stroke="#f3fcf3"></path><path d="M0 493.3L0 600L92 532.3Z" fill="#030c03" stroke="#f3fcf3"></path><path d="M812 600L900 548.3L779 490.3Z" fill="#f3fcf3" stroke="#f3fcf3"></path><path d="M812 600L900 600L900 548.3Z" fill="#f3fcf3" stroke="#f3fcf3"></path></g></svg>